<?xml version="1.0" standalone="no"?>
<!DOCTYPE svg PUBLIC "-//W3C//DTD SVG 20010904//EN"
 "http://www.w3.org/TR/2001/REC-SVG-20010904/DTD/svg10.dtd">
<svg version="1.0" xmlns="http://www.w3.org/2000/svg"
 width="608.000000pt" height="608.000000pt" viewBox="0 0 608.000000 608.000000"
 preserveAspectRatio="xMidYMid meet">
<metadata>
Created by potrace 1.11, written by Peter Selinger 2001-2013
</metadata>
<g transform="translate(0.000000,608.000000) scale(0.100000,-0.100000)"
fill="#000000" stroke="none">
<path d="M337 4807 c-142 -490 -260 -901 -263 -912 -4 -18 24 -40 185 -148
105 -70 194 -127 199 -127 4 0 38 81 76 180 38 99 71 179 73 177 2 -2 -33
-156 -77 -343 -44 -186 -79 -345 -78 -352 2 -12 318 -202 334 -202 2 0 4 42 4
94 0 52 4 97 8 100 4 3 14 -39 20 -92 71 -558 310 -1140 650 -1582 45 -58 71
-103 83 -144 36 -120 122 -212 238 -256 30 -12 77 -42 106 -68 28 -26 117 -96
197 -156 l146 -109 7 -106 c11 -155 7 -152 99 -77 l78 64 77 -46 c42 -25 166
-89 276 -143 172 -85 202 -104 221 -134 l22 -36 21 34 c18 29 55 51 234 140
116 58 242 123 278 144 l67 37 73 -59 c41 -32 79 -62 84 -66 6 -5 11 27 13 89
5 156 -1 146 152 263 74 56 161 126 194 155 35 32 78 60 106 69 117 39 215
145 249 270 6 22 38 76 72 120 218 281 417 661 527 1007 63 194 142 563 142
661 0 24 3 28 10 17 5 -8 10 -55 10 -103 0 -49 4 -87 8 -85 38 15 326 186 329
195 3 7 -31 166 -76 354 -45 188 -80 343 -78 345 2 2 34 -77 72 -176 38 -99
73 -180 77 -180 5 0 94 57 199 127 161 108 189 130 185 148 -3 11 -121 422
-263 912 l-258 893 -2425 0 -2425 0 -258 -893z m3769 743 l101 0 27 -72 c14
-40 26 -76 26 -80 0 -5 -22 -8 -50 -8 -41 0 -50 -3 -50 -17 0 -10 16 -163 36
-341 20 -178 34 -325 32 -326 -1 -2 -43 2 -93 8 l-90 11 -32 325 c-17 179 -32
331 -32 338 -1 8 -19 12 -56 12 -30 0 -55 2 -55 5 0 4 16 88 26 134 5 22 8 23
57 17 29 -3 98 -6 153 -6z m-3231 -27 c-10 -38 -154 -652 -160 -683 -11 -54
16 16 141 358 l128 352 59 0 60 0 -7 -32 c-4 -18 -31 -166 -62 -328 -30 -162
-57 -306 -60 -320 -17 -75 19 24 119 331 l113 344 81 3 82 3 -104 -303 c-204
-599 -335 -972 -342 -978 -10 -8 -174 -52 -178 -48 -2 2 1 26 5 53 49 282 91
525 95 545 13 59 -19 -20 -132 -326 l-118 -323 -89 -31 c-48 -17 -91 -29 -94
-26 -6 7 76 420 150 751 49 223 145 635 154 668 5 14 18 17 86 17 l80 0 -7
-27z m779 -25 c6 -62 30 -652 31 -748 l0 -64 -75 -12 c-41 -7 -81 -13 -87 -13
-9 -1 -13 15 -13 49 0 48 -1 50 -29 50 -75 0 -89 -9 -108 -69 l-18 -56 -89
-18 c-49 -10 -91 -16 -93 -13 -2 2 54 183 126 402 71 220 140 432 152 472 l23
72 87 0 88 0 5 -52z m489 45 c3 -5 7 -39 8 -78 l4 -70 -100 -5 -100 -5 -7 -45
c-3 -25 -7 -64 -7 -87 l-1 -43 85 0 c121 0 120 2 101 -219 -17 -186 -27 -221
-77 -246 -30 -16 -284 -53 -294 -44 -2 3 -6 39 -7 80 l-3 74 97 10 c53 6 99
13 102 15 7 8 24 164 19 173 -3 5 -40 6 -83 2 -71 -6 -80 -5 -99 14 -25 25
-25 25 -6 199 24 213 38 254 95 275 23 8 268 8 273 0z m263 -120 c-4 -71 -9
-145 -12 -165 l-6 -38 45 0 44 0 6 107 c4 58 7 132 7 165 l0 58 86 0 87 0 -8
-247 c-4 -137 -10 -311 -14 -388 l-6 -140 -92 -3 c-72 -2 -92 0 -89 10 3 7 7
78 11 156 l6 144 -43 -7 c-24 -4 -44 -8 -45 -9 -1 0 -5 -65 -9 -143 -3 -77
-10 -147 -14 -153 -7 -11 -169 -33 -178 -25 -2 2 10 177 27 388 17 211 31 392
31 401 0 13 13 16 86 16 l86 0 -6 -127z m484 -258 l0 -385 -91 0 -90 0 6 323
c3 177 8 350 11 385 l6 62 79 0 79 0 0 -385z m238 338 c7 -27 26 -88 42 -138
l30 -90 -4 138 -3 138 86 -3 86 -3 11 -295 c7 -162 12 -334 13 -382 l1 -88
-90 0 -89 0 -41 133 c-23 72 -43 137 -45 142 -2 6 -4 -54 -4 -133 l-1 -143
-82 3 -83 3 -3 370 c-1 204 0 376 3 383 3 8 29 12 83 12 l78 0 12 -47z m676
-18 c9 -35 16 -69 16 -75 0 -6 -40 -10 -110 -10 -60 0 -110 -3 -110 -7 0 -5 7
-107 15 -228 8 -121 15 -228 15 -237 0 -15 9 -18 46 -18 l46 0 -6 38 c-3 20
-8 90 -11 154 l-7 117 79 -6 c43 -3 81 -8 84 -12 9 -8 45 -449 37 -456 -3 -3
-85 1 -183 9 -200 17 -232 28 -251 87 -6 18 -16 153 -23 299 -16 364 -16 356
14 385 23 24 28 25 178 25 l155 0 16 -65z m862 46 c20 -12 38 -35 48 -63 21
-58 138 -732 134 -776 -2 -24 -11 -41 -31 -56 l-27 -20 -143 23 c-164 26 -193
37 -229 79 -30 36 -32 47 -83 440 -42 329 -42 336 -10 367 23 24 29 25 167 25
123 0 147 -3 174 -19z m367 -73 c86 -184 240 -498 243 -495 1 1 -31 130 -72
287 -41 156 -74 288 -74 292 0 5 48 8 108 8 l107 0 84 -318 c46 -174 137 -508
202 -742 65 -233 117 -425 116 -427 -7 -6 -273 100 -283 113 -7 8 -74 149
-150 314 -76 164 -140 298 -141 296 -2 -1 26 -128 61 -282 36 -153 63 -280 61
-282 -2 -2 -36 6 -77 17 -40 11 -92 25 -114 30 -38 10 -43 15 -52 54 -12 47
-262 1213 -262 1222 0 3 45 5 100 5 l100 0 43 -92z m-1761 -925 c9 -10 18 -37
21 -60 l5 -43 -34 0 c-31 0 -34 3 -34 30 0 20 -5 30 -15 30 -32 0 -15 -45 35
-91 49 -45 50 -47 50 -106 0 -71 -12 -86 -71 -86 -52 0 -79 26 -86 82 l-6 41
37 0 c33 0 36 -2 36 -30 0 -20 5 -30 15 -30 30 0 17 51 -24 89 -21 20 -43 46
-50 58 -16 32 -14 99 5 117 22 22 96 21 116 -1z m-402 -53 c0 -28 -2 -30 -40
-30 -39 0 -40 -1 -40 -35 0 -33 2 -35 35 -35 31 0 35 -3 35 -25 0 -22 -4 -25
-35 -25 -33 0 -35 -2 -35 -35 0 -34 1 -35 40 -35 35 0 40 -3 40 -24 0 -28 -21
-36 -99 -36 l-54 0 7 146 c3 80 9 150 12 155 3 5 34 9 70 9 l64 0 0 -30z m690
-18 c11 -13 20 -38 20 -53 0 -26 -4 -29 -30 -29 -25 0 -30 4 -30 24 0 24 -16
43 -26 33 -3 -3 -2 -48 2 -101 5 -71 10 -96 20 -96 8 0 14 11 14 25 0 21 5 25
29 25 37 0 50 -39 26 -76 -22 -34 -96 -34 -129 -1 -20 20 -24 37 -30 130 -7
120 -1 144 41 149 46 5 72 -3 93 -30z m-1036 -92 l-7 -120 37 0 c35 0 37 -2
34 -27 -3 -27 -5 -28 -72 -31 l-69 -3 7 133 c9 165 10 168 47 168 l30 0 -7
-120z m1244 95 c2 -2 6 -28 9 -58 4 -35 11 -58 20 -61 12 -5 13 5 8 60 l-7 65
28 -7 c16 -4 31 -9 33 -11 7 -5 40 -286 35 -294 -2 -3 -17 -4 -33 -1 -27 4
-31 8 -36 51 -4 25 -7 52 -8 60 -1 8 -8 16 -16 19 -12 4 -13 -6 -8 -57 l7 -61
-34 0 c-33 0 -33 0 -39 59 -4 32 -9 102 -13 155 l-7 97 29 -7 c16 -4 30 -8 32
-9z m-1456 -6 c19 -10 20 -17 14 -107 -12 -162 -23 -178 -127 -189 -60 -6 -60
-6 -55 18 3 13 10 74 16 134 14 137 16 143 43 148 43 8 89 7 109 -4z m1829
-57 c21 -23 29 -49 43 -141 13 -87 15 -116 5 -127 -25 -30 -126 -7 -148 34
-11 20 -31 157 -31 211 0 50 16 64 65 57 27 -3 48 -14 66 -34z m-2113 -12 c4
-43 -15 -184 -30 -216 -14 -29 -60 -51 -118 -56 -35 -2 -45 0 -43 12 1 8 12
77 24 152 24 153 20 147 109 145 l55 -2 3 -35z m-307 -138 c-27 -159 -32 -172
-69 -172 l-29 0 23 133 c33 183 30 175 62 179 15 2 29 -1 31 -5 1 -5 -7 -65
-18 -135z m-181 136 c0 -12 -69 -341 -72 -344 -3 -2 -19 -7 -37 -10 -29 -6
-33 -5 -28 12 3 10 8 35 11 54 6 31 3 28 -19 -19 -30 -63 -24 -57 -51 -65 -19
-6 -22 -2 -29 41 l-8 48 -10 -45 c-11 -55 -22 -70 -53 -70 -13 0 -24 6 -24 13
1 17 76 336 81 341 2 3 18 6 34 8 l30 3 5 -100 5 -100 16 35 c9 19 31 69 49
110 18 41 38 78 44 82 10 7 56 11 56 6z m2857 -13 c21 -9 45 -25 52 -38 18
-28 62 -232 55 -251 -9 -22 -38 -28 -82 -17 -65 18 -80 44 -105 176 -21 115
-21 118 -2 131 24 18 36 18 82 -1z m261 -59 c5 -6 22 -66 37 -133 l28 -121 36
-7 c44 -8 61 -21 61 -46 0 -23 0 -23 -88 -3 l-69 16 -32 143 c-17 80 -31 151
-31 158 0 17 44 11 58 -7z m-1468 -456 c209 -10 358 -27 538 -61 199 -38 130
-47 -177 -23 -98 7 -148 -1 -332 -57 -123 -37 -141 -40 -219 -36 -62 4 -121
16 -220 47 -124 39 -144 43 -245 43 -60 0 -161 -3 -222 -8 -148 -10 -148 6 -2
34 170 32 338 52 509 60 85 5 160 9 165 9 6 1 98 -3 205 -8z m-1269 -75 c164
-49 311 -85 347 -85 l37 0 -50 -44 c-45 -39 -112 -129 -74 -100 175 139 221
158 379 158 109 1 123 -2 260 -44 180 -55 221 -56 380 -7 160 49 227 61 323
54 105 -6 173 -33 264 -101 39 -30 78 -58 85 -62 28 -17 -25 53 -74 97 l-50
46 62 7 c35 4 113 22 174 41 279 84 346 86 412 13 28 -30 54 -81 105 -209 22
-57 57 -130 76 -162 46 -74 53 -131 24 -208 -12 -30 -31 -66 -43 -78 -20 -22
-27 -23 -94 -18 -141 11 -254 88 -311 214 -35 75 -42 180 -18 252 18 54 42 84
28 34 -4 -15 -7 -64 -7 -108 2 -125 50 -226 137 -287 l32 -22 -34 39 c-78 90
-107 217 -78 350 8 39 18 78 22 87 5 13 0 19 -19 24 -59 14 -128 -67 -142
-167 -8 -63 -15 -72 -45 -61 -13 5 -42 12 -64 16 l-40 6 45 -24 c52 -27 95
-68 116 -108 15 -30 31 -118 21 -118 -4 0 -37 20 -74 45 -81 55 -144 75 -233
75 -94 0 -152 -20 -350 -122 -178 -92 -238 -111 -303 -94 -53 13 -54 133 -2
222 86 146 352 214 631 160 23 -5 20 -2 -14 15 -120 57 -321 64 -467 14 -100
-33 -156 -65 -222 -128 l-52 -49 -31 35 c-118 135 -387 209 -591 163 -74 -17
-188 -63 -125 -50 278 54 546 -15 633 -164 37 -62 45 -178 14 -206 -17 -15
-32 -18 -82 -14 -55 4 -85 16 -238 95 -203 104 -257 123 -357 123 -88 0 -157
-23 -238 -80 -31 -22 -59 -40 -61 -40 -9 0 -5 53 7 94 15 47 67 104 122 130
21 10 36 20 33 22 -4 4 -53 -6 -103 -21 -19 -6 -22 -2 -27 45 -15 124 -96 219
-155 181 -11 -7 -10 -19 4 -67 24 -80 23 -206 0 -270 -10 -27 -37 -74 -59
-103 l-41 -55 32 23 c97 69 156 229 133 356 -6 32 -9 60 -7 62 8 8 38 -85 43
-132 6 -61 -17 -159 -53 -220 -54 -93 -165 -162 -274 -172 -92 -9 -107 -1
-141 70 -43 92 -40 138 15 240 25 45 65 134 91 198 46 117 96 192 139 209 41
17 133 10 217 -15z m-452 -317 c-12 -23 -36 -63 -53 -88 -56 -83 -43 -221 31
-308 23 -27 38 -34 78 -38 58 -7 151 14 233 51 30 14 52 21 50 17 -78 -156
-93 -210 -86 -314 4 -51 12 -78 31 -107 l26 -40 -64 -103 c-185 -293 -265
-541 -222 -681 22 -68 2 -49 -77 78 -203 322 -334 678 -406 1095 l-22 125 77
72 c43 40 117 101 166 135 94 67 250 160 257 154 2 -2 -7 -24 -19 -48z m3169
4 c120 -69 249 -163 336 -245 l77 -72 -20 -121 c-57 -338 -146 -612 -295 -899
-69 -135 -203 -351 -212 -342 -2 2 3 21 12 43 24 56 22 171 -5 269 -28 103
-103 258 -197 411 -40 67 -74 124 -74 127 0 4 11 22 24 42 52 76 39 229 -29
361 -19 35 -32 64 -30 64 1 0 31 -13 66 -30 84 -39 193 -58 246 -42 46 14 85
69 110 152 20 69 8 140 -35 202 -38 56 -75 128 -65 128 5 0 45 -21 91 -48z
m-2385 -208 c12 -4 13 -12 6 -37 -12 -44 -11 -137 2 -178 27 -80 108 -127 199
-115 41 5 43 4 25 -9 -42 -33 -138 -45 -192 -24 -60 23 -112 100 -113 167 0
17 -4 32 -10 32 -14 0 -13 -94 2 -143 12 -40 77 -118 108 -130 12 -4 8 -11
-15 -29 -288 -222 -512 -498 -634 -784 -72 -168 -63 -155 -72 -106 -28 148
146 540 405 917 84 121 84 122 50 98 -40 -29 -125 -120 -159 -171 -15 -23 -31
-42 -36 -42 -22 0 -44 68 -44 140 0 65 4 84 33 142 56 114 173 224 280 263 38
14 139 20 165 9z m1742 -29 c85 -42 193 -151 236 -240 30 -61 34 -79 34 -145
0 -72 -22 -140 -44 -140 -5 0 -21 19 -36 42 -34 52 -119 142 -160 172 l-30 21
20 -30 c184 -276 248 -382 334 -554 63 -124 117 -272 130 -348 9 -60 5 -143
-9 -143 -4 0 -13 19 -19 43 -20 65 -102 233 -160 327 -112 179 -282 370 -456
509 -44 35 -81 67 -83 71 -2 5 6 11 17 15 30 9 86 79 99 124 15 47 16 141 2
141 -5 0 -10 -15 -10 -32 -1 -67 -53 -144 -113 -167 -54 -21 -150 -9 -192 24
-18 13 -16 14 25 9 91 -12 172 35 199 115 13 41 14 134 2 178 -12 40 -6 43 84
40 55 -2 83 -9 130 -32z m-1590 -105 c9 -30 14 -35 38 -32 32 4 35 -8 7 -33
-25 -23 -13 -47 38 -75 l37 -21 -49 5 c-27 4 -63 15 -81 26 -71 44 -92 176
-26 168 19 -2 28 -11 36 -38z m1308 19 c30 -48 -33 -148 -107 -169 -54 -15
-96 -9 -54 8 15 6 37 21 48 32 l22 22 -22 23 c-26 28 -20 44 15 37 19 -3 25 0
25 12 0 50 49 73 73 35z m-553 -193 c205 -38 409 -150 615 -337 61 -56 66 -59
41 -24 -52 71 -119 135 -221 211 -153 112 -145 106 -113 94 221 -77 529 -375
726 -702 123 -205 190 -389 199 -553 9 -160 -31 -262 -125 -325 -61 -40 -131
-60 -211 -60 -88 0 -135 15 -179 54 l-36 33 28 91 c33 109 43 224 27 317 -12
70 -54 173 -91 225 l-21 29 35 46 c102 133 28 300 -160 364 -129 43 -283 75
-488 101 -107 13 -123 21 -142 65 -13 31 -20 115 -10 115 3 0 27 -14 53 -30
79 -49 155 -42 179 16 46 110 -95 238 -258 236 -167 -2 -311 -170 -222 -259
22 -22 32 -25 77 -21 35 3 66 14 95 33 23 15 45 25 48 22 3 -3 3 -29 -1 -58
-10 -70 -43 -105 -111 -114 -247 -31 -440 -71 -556 -115 -110 -41 -178 -128
-178 -228 0 -63 13 -98 51 -138 l30 -31 -21 -26 c-28 -35 -69 -127 -86 -190
-28 -104 -13 -287 32 -401 14 -37 14 -41 -3 -65 -37 -49 -88 -66 -198 -66 -87
0 -107 3 -155 26 -74 35 -116 72 -145 129 -85 168 -29 451 149 754 182 310
428 566 658 686 109 57 117 49 18 -17 -47 -31 -128 -99 -181 -152 -116 -116
-154 -176 -48 -76 288 273 608 394 899 341z m-27 -110 c33 -14 92 -64 85 -71
-2 -3 -21 4 -42 15 -91 46 -196 47 -293 4 -21 -10 -42 -20 -48 -22 -23 -10 42
51 70 66 65 34 160 37 228 8z m155 -392 c247 -28 441 -94 498 -170 68 -88 22
-229 -66 -204 -14 4 -69 24 -122 44 -129 48 -150 46 -47 -6 62 -30 103 -60
155 -112 81 -82 118 -150 136 -254 34 -201 -88 -405 -257 -429 -53 -7 -55 -2
-23 77 30 74 32 275 5 364 -21 67 -65 171 -71 165 -2 -2 5 -37 15 -78 81 -316
-24 -522 -298 -587 -91 -22 -295 -22 -386 0 -275 65 -376 264 -298 588 10 43
15 75 10 73 -15 -10 -68 -162 -80 -230 -15 -90 -6 -225 20 -295 30 -80 29 -84
-24 -77 -169 24 -291 228 -257 429 18 104 55 172 136 254 52 52 94 82 156 114
101 50 66 48 -71 -5 -135 -53 -166 -50 -190 22 -30 93 13 164 134 222 200 96
583 135 925 95z m-633 -1296 c2 -1 5 -37 7 -78 3 -81 -3 -89 -58 -76 -23 6
-24 10 -24 90 l0 84 36 -8 c19 -5 37 -10 39 -12z m805 -2 c0 -8 -9 -16 -20
-19 -11 -3 -20 -10 -20 -16 0 -6 9 -11 20 -11 17 0 20 -7 20 -49 0 -51 -9 -61
-51 -61 -22 0 -26 28 -4 36 22 9 18 31 -5 37 -15 4 -20 14 -20 40 0 36 12 52
45 59 25 6 35 1 35 -16z m-718 -73 l2 -68 3 68 c4 68 9 77 31 55 16 -16 15
-130 -1 -152 -11 -15 -19 -17 -43 -9 -29 9 -29 11 -32 91 -3 77 -2 82 18 82
18 0 20 -7 22 -67z m598 53 c0 -8 -9 -18 -20 -21 -17 -5 -20 -14 -18 -53 1
-37 2 -40 5 -14 3 24 9 32 24 32 16 0 19 -7 19 -49 0 -46 -1 -49 -31 -55 -18
-3 -38 -1 -45 5 -17 14 -19 121 -4 150 13 23 70 27 70 5z m-480 -65 c0 -52 4
-70 15 -75 30 -11 17 -36 -20 -36 l-35 0 0 90 c0 83 1 90 20 90 18 0 20 -7 20
-69z m365 -21 l0 -85 -40 0 -40 0 -3 73 c-3 85 7 104 52 100 l31 -3 0 -85z
m-265 10 c0 -57 3 -70 16 -70 9 0 14 -7 12 -17 -2 -13 -13 -18 -33 -18 l-30 0
-3 88 c-3 82 -2 87 18 87 18 0 20 -6 20 -70z m150 -15 c0 -81 -1 -85 -24 -91
-55 -14 -61 -6 -64 89 l-3 87 46 0 45 0 0 -85z m-652 -30 c53 -44 49 -57 -46
-161 -48 -53 -88 -91 -90 -85 -8 25 18 255 30 263 26 16 76 8 106 -17z m1236
16 c7 -11 29 -261 24 -267 -6 -6 -178 185 -178 197 0 6 15 26 34 45 27 27 42
34 74 34 23 0 43 -4 46 -9z m-579 -192 l24 -24 -57 -132 c-31 -73 -59 -133
-62 -133 -8 0 -110 242 -110 261 0 17 24 42 50 52 8 4 41 5 73 4 46 -3 63 -8
82 -28z"/>
<path d="M1472 5050 c-18 -66 -32 -126 -32 -133 0 -9 11 -12 35 -9 l35 4 0
129 c0 71 -2 129 -3 129 -2 0 -18 -54 -35 -120z"/>
<path d="M4480 5376 c0 -17 80 -559 83 -562 1 -1 22 -5 46 -9 l44 -7 -5 43
c-19 148 -82 526 -90 537 -15 17 -78 16 -78 -2z"/>
<path d="M2236 4383 c-13 -73 -17 -163 -6 -163 15 0 19 14 28 108 6 62 5 82
-4 82 -7 0 -15 -12 -18 -27z"/>
<path d="M4080 4359 c0 -11 5 -53 11 -92 11 -70 22 -97 35 -84 9 9 -26 197
-37 197 -5 0 -9 -9 -9 -21z"/>
<path d="M1931 4284 c-12 -92 -9 -124 8 -95 5 7 12 41 16 75 3 33 9 73 12 89
4 19 1 27 -9 27 -11 0 -18 -24 -27 -96z"/>
<path d="M4370 4323 c0 -4 7 -46 16 -93 16 -79 35 -123 46 -103 9 14 -36 196
-49 201 -7 2 -13 0 -13 -5z"/>
<path d="M2607 2743 c-12 -11 -7 -33 8 -39 20 -8 45 13 38 32 -5 14 -34 19
-46 7z"/>
<path d="M3393 2734 c-3 -8 -1 -20 6 -27 14 -14 47 15 37 32 -10 16 -36 13
-43 -5z"/>
<path d="M2551 2640 c-19 -11 -9 -45 14 -45 13 0 21 8 23 21 3 23 -17 37 -37
24z"/>
<path d="M3454 2625 c-8 -19 12 -36 33 -28 19 7 12 37 -10 41 -9 2 -20 -4 -23
-13z"/>
<path d="M2817 2586 c-7 -19 18 -40 39 -32 8 3 14 14 12 23 -4 22 -43 29 -51
9z"/>
<path d="M3177 2593 c-12 -11 -7 -33 8 -39 20 -8 45 13 38 32 -5 14 -34 19
-46 7z"/>
<path d="M2675 2580 c-10 -17 20 -44 40 -36 9 3 15 14 13 23 -4 21 -43 30 -53
13z"/>
<path d="M3317 2576 c-9 -22 19 -42 37 -26 19 15 10 40 -14 40 -10 0 -20 -6
-23 -14z"/>
<path d="M2865 2241 c-104 -29 -133 -42 -70 -34 65 9 408 9 460 1 26 -5 14 2
-35 19 -103 35 -255 41 -355 14z"/>
<path d="M2621 1114 c0 -11 3 -14 6 -6 3 7 2 16 -1 19 -3 4 -6 -2 -5 -13z"/>
<path d="M2616 1061 c-4 -7 -5 -15 -2 -18 9 -9 19 4 14 18 -4 11 -6 11 -12 0z"/>
<path d="M3183 1050 c0 -30 2 -43 4 -27 2 15 2 39 0 55 -2 15 -4 2 -4 -28z"/>
<path d="M3063 1040 c0 -30 2 -43 4 -27 2 15 2 39 0 55 -2 15 -4 2 -4 -28z"/>
</g>
</svg>
